# Blender v2.79 (sub 0) OBJ File: ''
# www.blender.org
mtllib reactor_matter.mtl
o matter
v -0.000000 0.287013 -0.692910
v -0.000000 0.530330 -0.530330
v 0.327762 0.530330 -0.429046
v 0.428242 0.287013 -0.560576
v -0.000000 0.750000 0.000000
v 0.287013 0.692910 0.088692
v 0.287013 0.692910 -0.088692
v 0.177383 0.692910 -0.232198
v -0.177383 0.692910 0.232198
v -0.000000 0.692910 0.287012
v 0.177384 0.692910 0.232198
v -0.000000 -0.530330 -0.530330
v -0.000000 -0.287013 -0.692910
v 0.428242 -0.287013 -0.560576
v 0.327762 -0.530330 -0.429046
v -0.000000 0.000000 -0.750000
v 0.463525 0.000000 -0.606763
v -0.000000 0.692910 -0.287013
v -0.000000 -0.692910 -0.287013
v 0.177383 -0.692910 -0.232198
v 0.692909 -0.287013 -0.214121
v 0.530330 -0.530330 -0.163881
v 0.692909 0.287013 -0.214121
v 0.750000 0.000000 -0.231763
v 0.530330 0.530330 -0.163881
v 0.287013 -0.692910 -0.088692
v -0.287013 -0.692910 0.088692
v -0.287013 -0.692910 -0.088692
v -0.000000 -0.750000 -0.000000
v -0.177383 -0.692910 0.232198
v 0.530330 -0.530330 0.163881
v 0.287013 -0.692910 0.088692
v 0.750000 -0.000000 0.231763
v 0.692909 -0.287013 0.214121
v 0.530330 0.530330 0.163881
v 0.692909 0.287013 0.214121
v -0.287013 0.692910 -0.088692
v -0.287013 0.692910 0.088692
v 0.463525 -0.000000 0.606763
v 0.428242 -0.287013 0.560576
v 0.327762 0.530330 0.429046
v 0.428242 0.287013 0.560576
v 0.327762 -0.530330 0.429046
v 0.177384 -0.692910 0.232198
v -0.000000 -0.287013 0.692910
v -0.000000 -0.530330 0.530330
v -0.000000 0.287013 0.692910
v -0.000000 -0.000000 0.750000
v -0.000000 0.530330 0.530330
v -0.000000 -0.692910 0.287012
v -0.428242 0.287013 0.560576
v -0.463525 -0.000000 0.606763
v -0.327762 0.530330 0.429046
v -0.327762 -0.530330 0.429046
v -0.428242 -0.287013 0.560576
v -0.530330 -0.530330 0.163881
v -0.750000 -0.000000 0.231763
v -0.692910 -0.287013 0.214121
v -0.530330 0.530330 0.163881
v -0.692910 0.287013 0.214121
v -0.177384 -0.692910 -0.232198
v -0.530330 0.530330 -0.163881
v -0.692910 0.287013 -0.214121
v -0.692910 -0.287013 -0.214121
v -0.530330 -0.530330 -0.163881
v -0.750000 0.000000 -0.231763
v -0.428242 -0.287013 -0.560576
v -0.327762 -0.530330 -0.429046
v -0.428242 0.287013 -0.560576
v -0.463525 0.000000 -0.606763
v -0.177384 0.692910 -0.232198
v -0.327762 0.530330 -0.429046
vn 0.2489 0.5381 -0.8053
vn 0.1765 0.9824 -0.0613
vn 0.1771 0.9824 -0.0591
vn 0.1577 0.9801 -0.1205
vn -0.0000 0.9808 0.1951
vn 0.0602 0.9790 0.1947
vn 0.2489 -0.5381 -0.8053
vn 0.2901 0.1867 -0.9386
vn 0.1692 0.8195 -0.5476
vn 0.1692 -0.8195 -0.5476
vn 0.2901 -0.1867 -0.9386
vn 0.6643 -0.5487 -0.5075
vn 0.7799 0.1918 -0.5958
vn 0.4470 0.8268 -0.3414
vn 0.4470 -0.8268 -0.3414
vn 0.7799 -0.1918 -0.5958
vn 0.6643 0.5487 -0.5075
vn -0.1771 -0.9824 0.0591
vn -0.1765 -0.9824 0.0613
vn -0.1577 -0.9801 0.1205
vn 0.1577 -0.9801 -0.1205
vn 0.5556 -0.8315 0.0000
vn 0.9808 -0.1951 -0.0000
vn 0.8315 0.5556 0.0000
vn -0.1765 0.9824 0.0613
vn -0.1771 0.9824 0.0591
vn -0.1577 0.9801 0.1205
vn 0.8315 -0.5556 0.0000
vn 0.9808 0.1951 0.0000
vn 0.5556 0.8315 0.0000
vn 0.7799 -0.1918 0.5958
vn 0.6643 0.5487 0.5075
vn 0.1577 0.9801 0.1205
vn 0.6643 -0.5487 0.5075
vn 0.7799 0.1918 0.5958
vn 0.4470 0.8268 0.3414
vn 0.4470 -0.8268 0.3414
vn 0.2489 -0.5381 0.8053
vn 0.2901 0.1867 0.9386
vn 0.1692 0.8195 0.5476
vn 0.1692 -0.8195 0.5476
vn 0.2901 -0.1867 0.9386
vn 0.2489 0.5381 0.8053
vn -0.0000 -0.9808 0.1951
vn 0.0602 -0.9790 0.1947
vn -0.2901 0.1867 0.9386
vn -0.1692 0.8195 0.5476
vn -0.1692 -0.8195 0.5476
vn -0.2901 -0.1867 0.9386
vn -0.2489 0.5381 0.8053
vn -0.2489 -0.5381 0.8053
vn -0.4470 -0.8268 0.3414
vn -0.7799 -0.1918 0.5958
vn -0.6643 0.5487 0.5075
vn 0.0000 -0.9808 -0.1951
vn 0.0602 -0.9790 -0.1947
vn 0.1771 -0.9824 0.0591
vn 0.1765 -0.9824 0.0613
vn 0.1951 -0.9808 0.0000
vn -0.6643 -0.5487 0.5075
vn -0.7799 0.1918 0.5958
vn -0.4470 0.8268 0.3414
vn -0.8315 0.5556 0.0000
vn -0.8315 -0.5556 0.0000
vn -0.9808 0.1951 0.0000
vn -0.5556 0.8315 0.0000
vn -0.5556 -0.8315 0.0000
vn -0.9808 -0.1951 -0.0000
vn -0.1577 -0.9801 -0.1205
vn -0.6643 -0.5487 -0.5075
vn -0.7799 0.1918 -0.5958
vn -0.4470 0.8268 -0.3414
vn -0.4470 -0.8268 -0.3414
vn -0.7799 -0.1918 -0.5958
vn -0.6643 0.5487 -0.5075
vn -0.1577 0.9801 -0.1205
vn -0.1692 0.8195 -0.5476
vn -0.1692 -0.8195 -0.5476
vn -0.2901 -0.1867 -0.9386
vn -0.2489 0.5381 -0.8053
vn -0.2489 -0.5381 -0.8053
vn -0.2901 0.1867 -0.9386
vn 0.0000 0.9808 -0.1951
vn -0.0602 0.9790 -0.1947
vn 0.1951 0.9808 0.0000
vn 0.0602 0.9790 -0.1947
vn -0.1951 0.9808 0.0000
vn -0.0602 0.9790 0.1947
vn -0.1951 -0.9808 0.0000
vn -0.0602 -0.9790 0.1947
vn -0.0602 -0.9790 -0.1947
vn 0.1577 -0.9801 0.1205
usemtl m_matter
s 1
f 1//1 2//1 3//1 4//1
f 5//2 7//3 8//4
f 5//5 10//5 11//6
f 12//7 13//7 14//7 15//7
f 16//8 1//8 4//8 17//8
f 2//9 18//9 8//9 3//9
f 19//10 12//10 15//10 20//10
f 13//11 16//11 17//11 14//11
f 15//12 14//12 21//12 22//12
f 17//13 4//13 23//13 24//13
f 3//14 8//14 7//14 25//14
f 20//15 15//15 22//15 26//15
f 14//16 17//16 24//16 21//16
f 4//17 3//17 25//17 23//17
f 27//18 29//19 30//20
f 29//21 20//21 26//21
f 26//22 22//22 31//22 32//22
f 21//23 24//23 33//23 34//23
f 23//24 25//24 35//24 36//24
f 5//25 38//26 9//27
f 22//28 21//28 34//28 31//28
f 24//29 23//29 36//29 33//29
f 25//30 7//30 6//30 35//30
f 34//31 33//31 39//31 40//31
f 36//32 35//32 41//32 42//32
f 6//33 5//33 11//33
f 31//34 34//34 40//34 43//34
f 33//35 36//35 42//35 39//35
f 35//36 6//36 11//36 41//36
f 32//37 31//37 43//37 44//37
f 43//38 40//38 45//38 46//38
f 39//39 42//39 47//39 48//39
f 41//40 11//40 10//40 49//40
f 44//41 43//41 46//41 50//41
f 40//42 39//42 48//42 45//42
f 42//43 41//43 49//43 47//43
f 50//44 29//44 44//45
f 48//46 47//46 51//46 52//46
f 49//47 10//47 9//47 53//47
f 50//48 46//48 54//48 30//48
f 45//49 48//49 52//49 55//49
f 47//50 49//50 53//50 51//50
f 46//51 45//51 55//51 54//51
f 30//52 54//52 56//52 27//52
f 55//53 52//53 57//53 58//53
f 51//54 53//54 59//54 60//54
f 29//55 19//55 20//56
f 32//57 29//58 26//59
f 54//60 55//60 58//60 56//60
f 52//61 51//61 60//61 57//61
f 53//62 9//62 38//62 59//62
f 60//63 59//63 62//63 63//63
f 56//64 58//64 64//64 65//64
f 57//65 60//65 63//65 66//65
f 59//66 38//66 37//66 62//66
f 27//67 56//67 65//67 28//67
f 58//68 57//68 66//68 64//68
f 29//69 28//69 61//69
f 65//70 64//70 67//70 68//70
f 66//71 63//71 69//71 70//71
f 62//72 37//72 71//72 72//72
f 28//73 65//73 68//73 61//73
f 64//74 66//74 70//74 67//74
f 63//75 62//75 72//75 69//75
f 37//76 5//76 71//76
f 72//77 71//77 18//77 2//77
f 61//78 68//78 12//78 19//78
f 67//79 70//79 16//79 13//79
f 69//80 72//80 2//80 1//80
f 68//81 67//81 13//81 12//81
f 70//82 69//82 1//82 16//82
f 5//83 18//83 71//84
f 5//2 6//85 7//3
f 5//83 8//86 18//83
f 5//25 37//87 38//26
f 5//5 9//88 10//5
f 27//18 28//89 29//19
f 50//44 30//90 29//44
f 29//55 61//91 19//55
f 32//57 44//92 29//58
