# Blender v2.79 (sub 0) OBJ File: ''
# www.blender.org
mtllib reactor.mtl
o surface
v -0.439734 -0.272692 -0.230790
v -0.252289 -0.187691 -0.132411
v -0.161856 -0.187691 -0.234489
v -0.282111 -0.272692 -0.408708
v -1.000000 -0.055743 -0.000000
v -0.931524 -0.194382 -0.000000
v -0.824824 -0.194382 -0.432901
v -0.885453 -0.055743 -0.464722
v -0.841732 0.268579 0.000000
v -0.929816 0.184483 0.000000
v -0.823312 0.184483 -0.432107
v -0.745316 0.268580 -0.391173
v -0.496618 -0.272692 -0.000000
v -0.284926 -0.187691 -0.000000
v -0.997088 0.062212 0.000000
v -0.882878 0.062212 -0.463370
v -0.004478 -0.143004 -0.000000
v -0.003953 -0.142598 -0.002075
v -0.290380 0.177905 0.000000
v -0.427302 0.289158 -0.224265
v -0.257119 0.177905 -0.134946
v 0.000000 0.098939 0.000000
v -0.000000 0.098640 0.000000
v -0.854624 -0.274224 -0.000000
v -0.724693 -0.321298 -0.000000
v -0.641684 -0.321298 -0.336782
v -0.756732 -0.274224 -0.397163
v -0.710705 0.324706 0.000000
v -0.629298 0.324706 -0.330281
v -0.164954 0.177905 -0.238978
v -0.274135 0.289158 -0.397154
v -0.058168 0.289158 -0.479060
v -0.035001 0.177905 -0.288263
v -0.566410 0.062212 -0.820587
v -0.528195 0.184483 -0.765223
v -0.002537 -0.142598 -0.003674
v -0.000000 0.098640 0.000000
v -0.568063 -0.055743 -0.822981
v -0.411673 -0.321298 -0.596410
v -0.485481 -0.274224 -0.703342
v -0.478159 0.268580 -0.692732
v -0.403727 0.324706 -0.584899
v -0.529166 -0.194382 -0.766629
v -0.120185 0.062212 -0.989818
v -0.120536 -0.055743 -0.992706
v 0.354603 -0.055743 -0.935013
v 0.353572 0.062212 -0.932293
v -0.000000 0.098640 0.000000
v -0.087352 -0.321298 -0.719409
v -0.103013 -0.274224 -0.848392
v -0.059860 -0.272692 -0.492997
v -0.101460 0.268580 -0.835595
v -0.085666 0.324706 -0.705523
v -0.112282 -0.194382 -0.924732
v -0.112077 0.184483 -0.923036
v -0.034345 -0.187691 -0.282849
v -0.000538 -0.142598 -0.004432
v 0.252020 0.324706 -0.664521
v 0.298482 0.268580 -0.787033
v 0.630045 0.268580 -0.558172
v 0.531970 0.324706 -0.471285
v 0.256979 -0.321298 -0.677600
v 0.303054 -0.274224 -0.799087
v 0.176103 -0.272692 -0.464346
v 0.330323 -0.194382 -0.870990
v 0.171124 0.289158 -0.451218
v 0.329717 0.184483 -0.869393
v 0.101036 -0.187691 -0.266411
v 0.001583 -0.142598 -0.004175
v 0.102970 0.177905 -0.271510
v -0.000000 0.098640 0.000000
v 0.748508 -0.055743 -0.663120
v 0.697256 -0.194382 -0.617715
v 0.904456 -0.194382 -0.222928
v 0.970938 -0.055742 -0.239315
v 0.639695 -0.274224 -0.566720
v 0.361215 0.289158 -0.320008
v 0.695977 0.184483 -0.616582
v 0.213270 -0.187691 -0.188941
v 0.371724 -0.272692 -0.329318
v 0.746331 0.062212 -0.661191
v 0.003342 -0.142598 -0.002960
v 0.217353 0.177905 -0.192558
v -0.000000 0.098640 0.000000
v 0.542441 -0.321298 -0.480561
v 0.902797 0.184483 -0.222519
v 0.968115 0.062212 -0.238618
v 0.968114 0.062212 0.238619
v 0.902797 0.184483 0.222520
v 0.817273 0.268580 -0.201440
v 0.276647 -0.187691 -0.068187
v 0.482187 -0.272692 -0.118848
v 0.004335 -0.142598 -0.001068
v 0.468556 0.289158 -0.115489
v 0.281943 0.177905 -0.069492
v -0.000000 0.098640 0.000000
v 0.703635 -0.321298 -0.173431
v 0.829790 -0.274224 -0.204525
v 0.690054 0.324706 -0.170082
v 0.004335 -0.142598 0.001069
v 0.276646 -0.187691 0.068188
v 0.468556 0.289158 0.115489
v 0.281943 0.177905 0.069493
v -0.000000 0.098640 0.000000
v 0.970938 -0.055742 0.239315
v 0.703635 -0.321298 0.173430
v 0.829790 -0.274224 0.204526
v 0.482187 -0.272692 0.118849
v 0.817273 0.268580 0.201440
v 0.690054 0.324706 0.170083
v 0.904456 -0.194382 0.222929
v 0.542441 -0.321298 0.480560
v 0.371724 -0.272692 0.329319
v 0.176103 -0.272692 0.464347
v 0.256979 -0.321298 0.677600
v 0.217352 0.177905 0.192559
v -0.000000 0.098640 0.000000
v 0.748508 -0.055742 0.663120
v 0.746330 0.062212 0.661192
v 0.639695 -0.274224 0.566721
v 0.630045 0.268580 0.558172
v 0.531970 0.324706 0.471286
v 0.697256 -0.194382 0.617715
v 0.361215 0.289158 0.320009
v 0.695977 0.184483 0.616582
v 0.213270 -0.187691 0.188941
v 0.003341 -0.142598 0.002961
v 0.330322 -0.194382 0.870991
v 0.303053 -0.274224 0.799087
v -0.103014 -0.274224 0.848393
v -0.112283 -0.194382 0.924733
v 0.298482 0.268580 0.787033
v 0.252019 0.324706 0.664521
v 0.171124 0.289158 0.451219
v 0.354603 -0.055742 0.935013
v 0.329717 0.184482 0.869394
v 0.101036 -0.187691 0.266411
v 0.353571 0.062212 0.932293
v 0.001583 -0.142598 0.004175
v 0.102970 0.177905 0.271511
v -0.000000 0.098640 0.000000
v -0.101460 0.268580 0.835596
v -0.112077 0.184482 0.923037
v -0.528196 0.184482 0.765224
v -0.478159 0.268580 0.692732
v -0.085666 0.324706 0.705524
v -0.058168 0.289158 0.479061
v -0.120536 -0.055742 0.992706
v -0.034345 -0.187691 0.282849
v -0.059860 -0.272692 0.492997
v -0.120186 0.062212 0.989818
v -0.000538 -0.142598 0.004433
v -0.035002 0.177905 0.288263
v -0.000000 0.098640 0.000000
v -0.087352 -0.321297 0.719410
v -0.161856 -0.187691 0.234490
v -0.002537 -0.142598 0.003674
v -0.003953 -0.142598 0.002075
v -0.252289 -0.187691 0.132412
v -0.282111 -0.272692 0.408709
v -0.566411 0.062212 0.820587
v -0.274135 0.289158 0.397155
v -0.164954 0.177905 0.238979
v -0.000000 0.098640 0.000000
v -0.568063 -0.055742 0.822981
v -0.411673 -0.321297 0.596411
v -0.485482 -0.274224 0.703342
v -0.403727 0.324706 0.584899
v -0.529167 -0.194382 0.766630
v -0.824824 -0.194382 0.432901
v -0.756732 -0.274224 0.397163
v -0.427302 0.289158 0.224266
v -0.257119 0.177905 0.134947
v -0.000000 0.098640 0.000000
v -0.885453 -0.055742 0.464722
v -0.882878 0.062212 0.463370
v -0.641684 -0.321297 0.336782
v -0.439734 -0.272692 0.230790
v -0.745316 0.268580 0.391173
v -0.629298 0.324706 0.330281
v -0.823312 0.184483 0.432107
v -0.004465 -0.142598 -0.000000
v -0.482579 0.289158 0.000000
vn 0.2474 -0.9602 0.1299
vn 0.1587 -0.9602 0.2300
vn 0.1608 -0.9591 0.2329
vn 0.2506 -0.9591 0.1315
vn -0.9781 -0.2080 0.0000
vn -0.8661 -0.2080 -0.4546
vn -0.7310 -0.5643 -0.3837
vn -0.8256 -0.5643 0.0000
vn -0.5694 0.8221 0.0000
vn -0.5042 0.8221 -0.2646
vn -0.7092 0.5988 -0.3722
vn -0.8009 0.5988 0.0000
vn 0.2794 -0.9602 0.0000
vn 0.2830 -0.9591 -0.0000
vn -0.8569 0.2521 -0.4497
vn -0.9677 0.2521 0.0000
vn 0.2723 0.9515 0.1429
vn 0.3076 0.9515 0.0000
vn 0.4019 0.9157 0.0000
vn 0.3559 0.9157 0.1868
vn 0.2440 0.9679 -0.0601
vn 0.3559 0.9157 -0.1868
vn 0.2283 0.9157 -0.3308
vn -0.5681 -0.8230 -0.0000
vn -0.5030 -0.8230 -0.2640
vn -0.0979 -0.9939 -0.0514
vn -0.1106 -0.9939 0.0000
vn -0.1660 0.9861 0.0000
vn -0.1470 0.9861 -0.0772
vn -0.1470 0.9861 0.0772
vn 0.2723 0.9515 -0.1429
vn 0.2283 0.9157 0.3308
vn 0.0484 0.9157 0.3990
vn 0.0371 0.9515 0.3053
vn 0.1747 0.9515 0.2531
vn -0.4550 0.5988 -0.6591
vn -0.5497 0.2521 -0.7964
vn 0.0902 -0.9873 0.1306
vn 0.1406 -0.9873 0.0738
vn 0.2026 0.9627 0.1795
vn 0.1496 0.9647 0.2167
vn -0.5556 -0.2080 -0.8050
vn -0.3227 -0.8230 -0.4675
vn -0.0628 -0.9939 -0.0910
vn -0.0943 0.9861 -0.1366
vn -0.3234 0.8221 -0.4686
vn -0.4690 -0.5643 -0.6794
vn -0.1166 0.2521 -0.9606
vn 0.3432 0.2521 -0.9048
vn 0.3468 -0.2080 -0.9146
vn -0.1179 -0.2080 -0.9710
vn 0.0317 0.9647 0.2614
vn -0.0685 -0.8230 -0.5639
vn -0.0133 -0.9939 -0.1098
vn 0.0337 -0.9602 0.2774
vn -0.0200 0.9861 -0.1648
vn -0.0686 0.8221 -0.5652
vn -0.0995 -0.5643 -0.8196
vn -0.0965 0.5988 -0.7951
vn 0.0341 -0.9591 0.2810
vn 0.0191 -0.9873 0.1576
vn 0.0589 0.9861 -0.1552
vn 0.1243 0.9861 -0.1101
vn 0.4262 0.8221 -0.3776
vn 0.2019 0.8221 -0.5324
vn 0.2014 -0.8230 -0.5312
vn 0.0392 -0.9939 -0.1034
vn -0.0991 -0.9602 0.2613
vn 0.2928 -0.5643 -0.7719
vn -0.1091 0.9515 0.2876
vn 0.2840 0.5988 -0.7489
vn -0.1004 -0.9591 0.2646
vn -0.0563 -0.9873 0.1484
vn -0.1425 0.9157 0.3758
vn -0.0934 0.9647 0.2462
vn 0.7321 -0.2080 -0.6486
vn 0.9497 -0.2080 -0.2341
vn 0.8016 -0.5643 -0.1976
vn 0.6179 -0.5643 -0.5475
vn 0.4252 -0.8230 -0.3767
vn -0.2302 0.9515 0.2039
vn 0.5995 0.5988 -0.5311
vn -0.2092 -0.9602 0.1853
vn -0.2118 -0.9591 0.1877
vn 0.7243 0.2521 -0.6417
vn -0.1188 -0.9873 0.1053
vn -0.3009 0.9157 0.2665
vn -0.1971 0.9647 0.1746
vn 0.0828 -0.9939 -0.0733
vn 0.7777 0.5988 -0.1917
vn 0.7777 0.5988 0.1917
vn 0.9396 0.2521 0.2316
vn 0.9396 0.2521 -0.2316
vn 0.5528 0.8221 -0.1363
vn -0.2713 -0.9602 0.0669
vn -0.2748 -0.9591 0.0677
vn -0.1541 -0.9873 0.0380
vn -0.3903 0.9157 0.0962
vn -0.2986 0.9515 0.0736
vn -0.2557 0.9647 0.0630
vn 0.5516 -0.8230 -0.1360
vn 0.1074 -0.9939 -0.0265
vn 0.1612 0.9861 -0.0397
vn -0.2748 -0.9591 -0.0677
vn -0.1541 -0.9873 -0.0380
vn -0.3903 0.9157 -0.0962
vn -0.2986 0.9515 -0.0736
vn -0.2557 0.9647 -0.0630
vn 0.9497 -0.2080 0.2341
vn 0.5516 -0.8230 0.1360
vn 0.1074 -0.9939 0.0265
vn -0.2713 -0.9602 -0.0669
vn 0.1612 0.9861 0.0397
vn 0.5528 0.8221 0.1363
vn 0.8016 -0.5643 0.1976
vn 0.0828 -0.9939 0.0733
vn 0.0392 -0.9939 0.1034
vn -0.0991 -0.9602 -0.2613
vn -0.2092 -0.9602 -0.1853
vn -0.1971 0.9647 -0.1746
vn -0.3009 0.9157 -0.2665
vn 0.7243 0.2521 0.6417
vn 0.7321 -0.2080 0.6486
vn 0.4252 -0.8230 0.3767
vn 0.1243 0.9861 0.1101
vn 0.4262 0.8221 0.3776
vn 0.6179 -0.5643 0.5475
vn -0.2302 0.9515 -0.2039
vn 0.5995 0.5988 0.5311
vn -0.2118 -0.9591 -0.1877
vn -0.1188 -0.9873 -0.1053
vn 0.2928 -0.5643 0.7719
vn -0.0995 -0.5643 0.8196
vn -0.0685 -0.8230 0.5639
vn 0.2014 -0.8230 0.5312
vn 0.0589 0.9861 0.1552
vn 0.2019 0.8221 0.5324
vn -0.1091 0.9515 -0.2876
vn 0.3468 -0.2080 0.9146
vn 0.2840 0.5988 0.7489
vn -0.1004 -0.9591 -0.2646
vn 0.3432 0.2521 0.9048
vn -0.0563 -0.9873 -0.1484
vn -0.1425 0.9157 -0.3758
vn -0.0934 0.9647 -0.2462
vn -0.0686 0.8221 0.5652
vn -0.3234 0.8221 0.4686
vn -0.4550 0.5988 0.6591
vn -0.0965 0.5988 0.7951
vn 0.0371 0.9515 -0.3053
vn -0.0200 0.9861 0.1648
vn -0.1179 -0.2080 0.9710
vn 0.0337 -0.9602 -0.2774
vn 0.0341 -0.9591 -0.2810
vn -0.1166 0.2521 0.9606
vn 0.0191 -0.9873 -0.1576
vn 0.0484 0.9157 -0.3990
vn 0.0317 0.9647 -0.2614
vn -0.0133 -0.9939 0.1098
vn 0.1608 -0.9591 -0.2329
vn 0.2506 -0.9591 -0.1315
vn 0.1406 -0.9873 -0.0738
vn 0.0902 -0.9873 -0.1306
vn 0.1587 -0.9602 -0.2300
vn -0.5497 0.2521 0.7964
vn 0.1747 0.9515 -0.2531
vn 0.0960 0.9627 -0.2531
vn -0.5556 -0.2080 0.8050
vn -0.3227 -0.8230 0.4675
vn -0.0628 -0.9939 0.0910
vn -0.0943 0.9861 0.1366
vn -0.4690 -0.5643 0.6794
vn -0.7310 -0.5643 0.3837
vn -0.5030 -0.8230 0.2640
vn -0.8569 0.2521 0.4497
vn -0.8661 -0.2080 0.4546
vn -0.0979 -0.9939 0.0514
vn 0.2474 -0.9602 -0.1299
vn -0.5041 0.8221 0.2646
vn -0.7092 0.5988 0.3722
vn 0.1587 -0.9873 0.0000
usemtl m_surface
s 1
f 1//1 4//2 3//3 2//4
f 5//5 8//6 7//7 6//8
f 9//9 12//10 11//11 10//12
f 13//13 1//1 2//4 14//14
f 10//12 11//11 16//15 15//16
f 20//17 183//18 19//19 21//20
f 174//21 173//22 163//23
f 15//16 16//15 8//6 5//5
f 24//24 27//25 26//26 25//27
f 25//27 26//26 1//1 13//13
f 28//28 29//29 12//10 9//9
f 6//8 7//7 27//25 24//24
f 28//28 180//30 172//31 183//18
f 30//32 33//33 32//34 31//35
f 11//11 35//36 34//37 16//15
f 2//4 3//3 36//38 18//39
f 21//20 30//32 31//35 20//17
f 23//40 37//41 30//32 21//20
f 16//15 34//37 38//42 8//6
f 27//25 40//43 39//44 26//26
f 26//26 39//44 4//2 1//1
f 29//29 42//45 41//46 12//10
f 7//7 43//47 40//43 27//25
f 20//17 31//35 42//45 29//29
f 8//6 38//42 43//47 7//7
f 12//10 41//46 35//36 11//11
f 44//48 47//49 46//50 45//51
f 37//41 48//52 33//33 30//32
f 34//37 44//48 45//51 38//42
f 40//43 50//53 49//54 39//44
f 39//44 49//54 51//55 4//2
f 42//45 53//56 52//57 41//46
f 43//47 54//58 50//53 40//43
f 31//35 32//34 53//56 42//45
f 38//42 45//51 54//58 43//47
f 41//46 52//57 55//59 35//36
f 4//2 51//55 56//60 3//3
f 35//36 55//59 44//48 34//37
f 3//3 56//60 57//61 36//38
f 58//62 61//63 60//64 59//65
f 50//53 63//66 62//67 49//54
f 49//54 62//67 64//68 51//55
f 53//56 58//62 59//65 52//57
f 54//58 65//69 63//66 50//53
f 32//34 66//70 58//62 53//56
f 45//51 46//50 65//69 54//58
f 52//57 59//65 67//71 55//59
f 51//55 64//68 68//72 56//60
f 55//59 67//71 47//49 44//48
f 56//60 68//72 69//73 57//61
f 33//33 70//74 66//70 32//34
f 48//52 71//75 70//74 33//33
f 72//76 75//77 74//78 73//79
f 65//69 73//79 76//80 63//66
f 66//70 77//81 61//63 58//62
f 46//50 72//76 73//79 65//69
f 59//65 60//64 78//82 67//71
f 64//68 80//83 79//84 68//72
f 67//71 78//82 81//85 47//49
f 68//72 79//84 82//86 69//73
f 70//74 83//87 77//81 66//70
f 71//75 84//88 83//87 70//74
f 47//49 81//85 72//76 46//50
f 63//66 76//80 85//89 62//67
f 62//67 85//89 80//83 64//68
f 86//90 89//91 88//92 87//93
f 60//64 90//94 86//90 78//82
f 80//83 92//95 91//96 79//84
f 78//82 86//90 87//93 81//85
f 79//84 91//96 93//97 82//86
f 83//87 95//98 94//99 77//81
f 84//88 96//100 95//98 83//87
f 81//85 87//93 75//77 72//76
f 76//80 98//101 97//102 85//89
f 85//89 97//102 92//95 80//83
f 61//63 99//103 90//94 60//64
f 73//79 74//78 98//101 76//80
f 77//81 94//99 99//103 61//63
f 91//96 101//104 100//105 93//97
f 95//98 103//106 102//107 94//99
f 96//100 104//108 103//106 95//98
f 87//93 88//92 105//109 75//77
f 98//101 107//110 106//111 97//102
f 97//102 106//111 108//112 92//95
f 99//103 110//113 109//114 90//94
f 74//78 111//115 107//110 98//101
f 94//99 102//107 110//113 99//103
f 75//77 105//109 111//115 74//78
f 90//94 109//114 89//91 86//90
f 92//95 108//112 101//104 91//96
f 112//116 115//117 114//118 113//119
f 104//108 117//120 116//121 103//106
f 88//92 119//122 118//123 105//109
f 107//110 120//124 112//116 106//111
f 106//111 112//116 113//119 108//112
f 110//113 122//125 121//126 109//114
f 111//115 123//127 120//124 107//110
f 102//107 124//128 122//125 110//113
f 105//109 118//123 123//127 111//115
f 109//114 121//126 125//129 89//91
f 108//112 113//119 126//130 101//104
f 89//91 125//129 119//122 88//92
f 101//104 126//130 127//131 100//105
f 103//106 116//121 124//128 102//107
f 128//132 131//133 130//134 129//135
f 122//125 133//136 132//137 121//126
f 123//127 128//132 129//135 120//124
f 124//128 134//138 133//136 122//125
f 118//123 135//139 128//132 123//127
f 121//126 132//137 136//140 125//129
f 113//119 114//118 137//141 126//130
f 125//129 136//140 138//142 119//122
f 126//130 137//141 139//143 127//131
f 116//121 140//144 134//138 124//128
f 117//120 141//145 140//144 116//121
f 119//122 138//142 135//139 118//123
f 120//124 129//135 115//117 112//116
f 142//146 145//147 144//148 143//149
f 134//138 147//150 146//151 133//136
f 135//139 148//152 131//133 128//132
f 132//137 142//146 143//149 136//140
f 114//118 150//153 149//154 137//141
f 136//140 143//149 151//155 138//142
f 137//141 149//154 152//156 139//143
f 140//144 153//157 147//150 134//138
f 141//145 154//158 153//157 140//144
f 138//142 151//155 148//152 135//139
f 129//135 130//134 155//159 115//117
f 115//117 155//159 150//153 114//118
f 133//136 146//151 142//146 132//137
f 156//160 159//161 158//162 157//163
f 150//153 160//164 156//160 149//154
f 143//149 144//148 161//165 151//155
f 149//154 156//160 157//163 152//156
f 153//157 163//23 162//166 147//150
f 154//158 164//167 163//23 153//157
f 151//155 161//165 165//168 148//152
f 130//134 167//169 166//170 155//159
f 155//159 166//170 160//164 150//153
f 146//151 168//171 145//147 142//146
f 131//133 169//172 167//169 130//134
f 147//150 162//166 168//171 146//151
f 148//152 165//168 169//172 131//133
f 170//173 6//8 24//24 171//174
f 163//23 173//22 172//31 162//166
f 19//19 173//22 174//21
f 161//165 176//175 175//176 165//168
f 167//169 171//174 177//177 166//170
f 166//170 177//177 178//178 160//164
f 168//171 180//30 179//179 145//147
f 169//172 170//173 171//174 167//169
f 162//166 172//31 180//30 168//171
f 165//168 175//176 170//173 169//172
f 145//147 179//179 181//180 144//148
f 160//164 178//178 159//161 156//160
f 144//148 181//180 176//175 161//165
f 19//19 183//18 172//31 173//22
f 178//178 13//13 14//14 159//161
f 180//30 28//28 9//9 179//179
f 5//5 175//176 176//175 15//16
f 10//12 181//180 179//179 9//9
f 6//8 170//173 175//176 5//5
f 181//180 10//12 15//16 176//175
f 177//177 25//27 13//13 178//178
f 29//29 28//28 183//18 20//17
f 177//177 171//174 24//24 25//27
f 174//21 21//20 19//19
f 2//4 18//39 182//181 14//14
f 159//161 14//14 182//181 158//162
